<?xml version="1.0" encoding="utf-8"?>
<!-- Generator: Adobe Illustrator 25.3.1, SVG Export Plug-In . SVG Version: 6.00 Build 0)  -->
<svg version="1.1" id="Camada_1" xmlns="http://www.w3.org/2000/svg" xmlns:xlink="http://www.w3.org/1999/xlink" x="0px" y="0px"
	 viewBox="0 0 300 100" style="enable-background:new 0 0 300 100;" xml:space="preserve">
<style type="text/css">
	.st0{fill:#F1FF00;}
</style>
<g>
	<path d="M0,10.13h15.76L47.4,77.96l33.27-67.83h15.64L57.7,86.6c-2.02,4.01-6.13,6.53-10.62,6.53h0c-4.59,0-8.76-2.64-10.74-6.78
		L0,10.13z"/>
	<path d="M129.68,7.91h13.77v18.56h29.3v12.38h-29.3v41.56h29.3v12.73h-12.73c-7.7,0-13.66-1.05-18.09-2.92
		c-8.87-4.09-12.26-12.96-12.26-28.72V7.91z"/>
	<path d="M244.9,85.2c-7.35,6.3-17.98,10.16-32.57,10.16c-18.91,0-27.67-6.54-27.67-18.56v-0.12c0-7.24,3.15-12.49,9.46-15.88
		c2.22-1.28,4.67-2.34,7.47-3.15c5.6-1.75,14.13-2.92,28.37-3.74c5.84-0.35,10.27-0.82,13.54-1.28c6.54-0.93,8.99-2.8,8.99-6.54
		v-0.12c0-1.87-0.7-3.62-2.1-5.37c-2.68-3.39-8.99-5.95-20.78-5.95c-19.73,0-27.09,4.9-28.49,15.53h-14.94
		c2.22-18.1,16.34-26.27,42.26-26.27c25.8,0,37.94,7.47,37.94,25.33v43.89h-11.91l-1.4-18.33C251.21,78.66,248.52,82.05,244.9,85.2z
		 M242.8,76.91c6.42-4.9,9.92-10.86,9.92-16.69v-2.8c-2.22,2.92-7.82,4.67-21.48,5.49c-15.29,0.82-22.41,2.1-26.5,4.79
		c-3.15,1.87-4.67,4.55-4.67,7.82v0.12c0,5.6,4.32,9.22,16.23,9.22C227.39,84.85,236.38,81.81,242.8,76.91z"/>
	<path d="M285.41,4.64H300v88.49h-14.59V4.64z"/>
	<rect x="104.85" y="26.48" class="st0" width="12.38" height="12.38"/>
</g>
</svg>
